<svg width="81" height="48" viewBox="0 0 81 48" fill="none" xmlns="http://www.w3.org/2000/svg">
<path d="M76.0815 47.215C74.5785 47.215 73.4418 46.7923 72.6715 45.9468C71.9012 45.0826 71.516 43.8519 71.516 42.255V41.1277H74.447V42.4804C74.447 43.758 74.9824 44.3968 76.0533 44.3968C76.5794 44.3968 76.974 44.2465 77.237 43.9459C77.5188 43.6265 77.6597 43.1192 77.6597 42.424C77.6597 41.5974 77.4718 40.874 77.0961 40.254C76.7203 39.6152 76.0252 38.8543 75.0106 37.9713C73.733 36.844 72.8406 35.8294 72.3333 34.9276C71.826 34.007 71.5724 32.9736 71.5724 31.8276C71.5724 30.2682 71.9669 29.0657 72.756 28.2203C73.5451 27.356 74.6912 26.9239 76.1943 26.9239C77.6785 26.9239 78.7964 27.356 79.5479 28.2203C80.3182 29.0657 80.7034 30.287 80.7034 31.8839V32.7012H77.7725V31.6867C77.7725 31.0103 77.6409 30.5218 77.3779 30.2212C77.1149 29.9018 76.7297 29.7421 76.2224 29.7421C75.1891 29.7421 74.6724 30.3715 74.6724 31.6303C74.6724 32.3442 74.8603 33.0112 75.2361 33.6312C75.6306 34.2512 76.3352 35.0028 77.3497 35.8858C78.6461 37.0131 79.5385 38.037 80.027 38.9576C80.5155 39.8783 80.7598 40.9586 80.7598 42.1986C80.7598 43.8144 80.3558 45.0544 79.5479 45.9186C78.7588 46.7829 77.6034 47.215 76.0815 47.215Z" fill="#8AD908"/>
<path d="M65.2486 47.215C63.7268 47.215 62.5619 46.7829 61.754 45.9186C60.9461 45.0544 60.5422 43.8331 60.5422 42.255V31.8839C60.5422 30.3057 60.9461 29.0845 61.754 28.2203C62.5619 27.356 63.7268 26.9239 65.2486 26.9239C66.7704 26.9239 67.9353 27.356 68.7432 28.2203C69.5511 29.0845 69.955 30.3057 69.955 31.8839V42.255C69.955 43.8331 69.5511 45.0544 68.7432 45.9186C67.9353 46.7829 66.7704 47.215 65.2486 47.215ZM65.2486 44.3968C66.3195 44.3968 66.855 43.7486 66.855 42.4522V31.6867C66.855 30.3903 66.3195 29.7421 65.2486 29.7421C64.1777 29.7421 63.6422 30.3903 63.6422 31.6867V42.4522C63.6422 43.7486 64.1777 44.3968 65.2486 44.3968Z" fill="#8AD908"/>
<path d="M55.3459 27.2057H58.4459V46.9332H55.3459V27.2057Z" fill="#8AD908"/>
<path d="M48.9257 47.215C47.4414 47.215 46.3047 46.7923 45.5156 45.9468C44.7453 45.1013 44.3602 43.9083 44.3602 42.3677V31.7712C44.3602 30.2306 44.7453 29.0375 45.5156 28.1921C46.3047 27.3466 47.4414 26.9239 48.9257 26.9239C50.4099 26.9239 51.5372 27.3466 52.3075 28.1921C53.0966 29.0375 53.4912 30.2306 53.4912 31.7712V33.8567H50.5602V31.5739C50.5602 30.3527 50.0436 29.7421 49.0102 29.7421C47.9769 29.7421 47.4602 30.3527 47.4602 31.5739V42.5931C47.4602 43.7956 47.9769 44.3968 49.0102 44.3968C50.0436 44.3968 50.5602 43.7956 50.5602 42.5931V39.5777H53.4912V42.3677C53.4912 43.9083 53.0966 45.1013 52.3075 45.9468C51.5372 46.7923 50.4099 47.215 48.9257 47.215Z" fill="#8AD908"/>
<path d="M37.7545 47.215C36.2327 47.215 35.0678 46.7829 34.26 45.9186C33.4521 45.0544 33.0481 43.8332 33.0481 42.255V31.884C33.0481 30.3058 33.4521 29.0845 34.26 28.2203C35.0678 27.356 36.2327 26.9239 37.7545 26.9239C39.2764 26.9239 40.4412 27.356 41.2491 28.2203C42.057 29.0845 42.4609 30.3058 42.4609 31.884V42.255C42.4609 43.8332 42.057 45.0544 41.2491 45.9186C40.4412 46.7829 39.2764 47.215 37.7545 47.215ZM37.7545 44.3968C38.8255 44.3968 39.3609 43.7486 39.3609 42.4522V31.6867C39.3609 30.3903 38.8255 29.7421 37.7545 29.7421C36.6836 29.7421 36.1482 30.3903 36.1482 31.6867V42.4522C36.1482 43.7486 36.6836 44.3968 37.7545 44.3968ZM38.0364 22.6402H41.4182L38.4027 25.8812H36.0636L38.0364 22.6402Z" fill="#8AD908"/>
<path d="M26.6614 47.215C25.1583 47.215 24.0123 46.7923 23.2232 45.9468C22.4341 45.0826 22.0395 43.8519 22.0395 42.255V31.8839C22.0395 30.287 22.4341 29.0657 23.2232 28.2203C24.0123 27.356 25.1583 26.9239 26.6614 26.9239C28.1644 26.9239 29.3105 27.356 30.0996 28.2203C30.8887 29.0657 31.2832 30.287 31.2832 31.8839V33.5749H28.3523V31.6867C28.3523 30.3903 27.8168 29.7421 26.7459 29.7421C25.675 29.7421 25.1395 30.3903 25.1395 31.6867V42.4804C25.1395 43.758 25.675 44.3968 26.7459 44.3968C27.8168 44.3968 28.3523 43.758 28.3523 42.4804V38.6195H26.8023V35.8013H31.2832V42.255C31.2832 43.8519 30.8887 45.0826 30.0996 45.9468C29.3105 46.7923 28.1644 47.215 26.6614 47.215Z" fill="#8AD908"/>
<path d="M12.0269 27.2057H20.4816V30.0239H15.127V35.2376H19.3825V38.0558H15.127V44.115H20.4816V46.9332H12.0269V27.2057Z" fill="#8AD908"/>
<path d="M0 27.2057H3.88913L6.90461 39.014H6.96098V27.2057H9.72282V46.9332H6.53825L2.81821 32.5321H2.76185V46.9332H0V27.2057Z" fill="#8AD908"/>
<path d="M66.4443 20.671C65.6728 20.671 64.9806 20.5442 64.3676 20.2905C63.7547 20.0369 63.2738 19.6881 62.9251 19.2443C62.5763 18.8004 62.4019 18.2878 62.4019 17.7066C62.4019 17.1782 62.5182 16.7026 62.7507 16.2799C62.9832 15.8571 63.3531 15.4555 63.8604 15.0751C64.3676 14.6841 65.0176 14.293 65.8102 13.902C66.4337 13.5955 66.9199 13.326 67.2686 13.0935C67.628 12.861 67.8763 12.6391 68.0137 12.4277C68.1616 12.2164 68.2356 11.9944 68.2356 11.7619C68.2356 11.4449 68.1247 11.1912 67.9027 11.001C67.6808 10.8002 67.3637 10.6998 66.9516 10.6998C66.5077 10.6998 66.159 10.8108 65.9053 11.0327C65.6623 11.2441 65.5407 11.5241 65.5407 11.8729C65.5407 12.0525 65.5724 12.2269 65.6358 12.396C65.7098 12.5651 65.8366 12.7553 66.0163 12.9667C66.196 13.1781 66.4549 13.4476 66.7931 13.7752L72.6585 19.4028L71.5646 20.6868L65.2237 14.5995C64.8643 14.2508 64.5737 13.9284 64.3518 13.6325C64.1299 13.3366 63.9713 13.0513 63.8762 12.7765C63.7811 12.4911 63.7335 12.2005 63.7335 11.9046C63.7335 11.3867 63.8656 10.9323 64.1298 10.5413C64.3941 10.1397 64.7692 9.83321 65.2554 9.62184C65.7415 9.39991 66.3069 9.28894 66.9516 9.28894C67.554 9.28894 68.0718 9.38934 68.5051 9.59014C68.949 9.78037 69.2925 10.0604 69.5355 10.4303C69.7892 10.7896 69.916 11.2229 69.916 11.7302C69.916 12.1741 69.805 12.5862 69.5831 12.9667C69.3611 13.3366 69.0124 13.6906 68.5368 14.0288C68.0718 14.367 67.4483 14.721 66.6662 15.0909C66.085 15.3763 65.6253 15.6458 65.2871 15.8994C64.9489 16.153 64.7058 16.4067 64.5579 16.6603C64.4099 16.914 64.3359 17.194 64.3359 17.5005C64.3359 17.807 64.4258 18.0765 64.6054 18.309C64.7956 18.5415 65.0599 18.7264 65.398 18.8638C65.7362 18.9906 66.1325 19.054 66.587 19.054C67.2633 19.054 67.8763 18.9061 68.4259 18.6102C68.986 18.3037 69.4563 17.8493 69.8367 17.2469C70.2172 16.6445 70.492 15.8994 70.661 15.0117L72.2621 15.5348C72.0402 16.6022 71.6545 17.5216 71.1049 18.2931C70.5659 19.054 69.9001 19.6406 69.1075 20.0527C68.3149 20.4649 67.4272 20.671 66.4443 20.671Z" fill="white"/>
<path d="M46.0986 0.785004H50.8332C52.3739 0.785004 53.5293 1.19834 54.2996 2.02502C55.07 2.85169 55.4551 4.06352 55.4551 5.66051V15.637C55.4551 17.234 55.07 18.4458 54.2996 19.2725C53.5293 20.0991 52.3739 20.5125 50.8332 20.5125H46.0986V0.785004ZM50.7769 17.6943C51.2842 17.6943 51.6693 17.544 51.9323 17.2434C52.2142 16.9427 52.3551 16.4543 52.3551 15.7779V5.5196C52.3551 4.84323 52.2142 4.35474 51.9323 4.05413C51.6693 3.75352 51.2842 3.60321 50.7769 3.60321H49.1987V17.6943H50.7769Z" fill="#DF1683"/>
<path d="M34.0717 0.785004H37.9608L40.9763 12.5933H41.0327V0.785004H43.7945V20.5125H40.61L36.8899 6.11142H36.8336V20.5125H34.0717V0.785004Z" fill="#DF1683"/>
<path d="M25.1558 0.785004H29.355L32.5677 20.5125H29.4677L28.904 16.5952V16.6515H25.3813L24.8176 20.5125H21.9431L25.1558 0.785004ZM28.5377 13.9742L27.1568 4.22322H27.1004L25.7477 13.9742H28.5377Z" fill="#DF1683"/>
<path d="M11.3939 0.785004H15.9876C17.5846 0.785004 18.7495 1.16077 19.4822 1.91229C20.2149 2.64502 20.5813 3.7817 20.5813 5.32232V6.53415C20.5813 8.58205 19.9049 9.87843 18.5522 10.4233V10.4796C19.3037 10.7051 19.8298 11.1654 20.1304 11.8606C20.4498 12.5557 20.6095 13.4857 20.6095 14.6506V18.117C20.6095 18.6806 20.6283 19.1409 20.6658 19.4979C20.7034 19.8361 20.7974 20.1743 20.9477 20.5125H17.7913C17.6785 20.1931 17.6034 19.8925 17.5658 19.6106C17.5282 19.3288 17.5095 18.8215 17.5095 18.0888V14.4815C17.5095 13.5797 17.3591 12.9503 17.0585 12.5933C16.7767 12.2363 16.2788 12.0578 15.5649 12.0578H14.494V20.5125H11.3939V0.785004ZM15.6213 9.23963C16.2413 9.23963 16.7016 9.07994 17.0022 8.76054C17.3216 8.44114 17.4813 7.90568 17.4813 7.15416V5.63233C17.4813 4.91838 17.3498 4.40171 17.0867 4.08231C16.8425 3.76291 16.4479 3.60321 15.9031 3.60321H14.494V9.23963H15.6213Z" fill="#DF1683"/>
<path d="M0 0.785004H4.67823C6.27521 0.785004 7.44007 1.16077 8.17281 1.91229C8.90554 2.64502 9.27191 3.7817 9.27191 5.32232V6.11142C9.27191 7.12598 9.10282 7.95265 8.76463 8.59145C8.44524 9.23024 7.94735 9.69055 7.27098 9.97237V10.0287C8.8116 10.5548 9.58191 11.9263 9.58191 14.1433V15.8342C9.58191 17.3561 9.17797 18.5209 8.37008 19.3288C7.58098 20.1179 6.41612 20.5125 4.8755 20.5125H0V0.785004ZM4.31186 8.8169C4.93187 8.8169 5.39218 8.6572 5.69278 8.33781C6.01218 8.01841 6.17188 7.48295 6.17188 6.73143V5.63233C6.17188 4.91838 6.04036 4.40171 5.77733 4.08231C5.53309 3.76291 5.13854 3.60321 4.59368 3.60321H3.10003V8.8169H4.31186ZM4.8755 17.6943C5.42036 17.6943 5.8243 17.5534 6.08733 17.2715C6.35037 16.9709 6.48188 16.4636 6.48188 15.7497V14.0306C6.48188 13.1288 6.32218 12.5088 6.00279 12.1706C5.70218 11.8136 5.1949 11.6351 4.48095 11.6351H3.10003V17.6943H4.8755Z" fill="#DF1683"/>
</svg>
