<svg width="24" height="25" viewBox="0 0 24 25" fill="none" xmlns="http://www.w3.org/2000/svg">
<g clip-path="url(#clip0_2_31)">
<path fill-rule="evenodd" clip-rule="evenodd" d="M12.594 23.758L12.582 23.76L12.511 23.795L12.491 23.799L12.477 23.795L12.406 23.759C12.3953 23.7563 12.3873 23.7583 12.382 23.765L12.378 23.775L12.361 24.203L12.366 24.223L12.376 24.236L12.48 24.31L12.495 24.314L12.507 24.31L12.611 24.236L12.623 24.22L12.627 24.203L12.61 23.776C12.6073 23.7653 12.602 23.7593 12.594 23.758ZM12.858 23.645L12.844 23.647L12.66 23.74L12.65 23.75L12.647 23.761L12.665 24.191L12.67 24.203L12.678 24.211L12.879 24.303C12.8917 24.3063 12.9013 24.3037 12.908 24.295L12.912 24.281L12.878 23.667C12.8747 23.6543 12.868 23.647 12.858 23.645ZM12.143 23.647C12.1386 23.6443 12.1333 23.6435 12.1283 23.6446C12.1233 23.6457 12.1188 23.6487 12.116 23.653L12.11 23.667L12.076 24.281C12.0767 24.293 12.0823 24.301 12.093 24.305L12.108 24.303L12.309 24.21L12.319 24.202L12.322 24.191L12.34 23.761L12.337 23.749L12.327 23.739L12.143 23.647Z" fill="#F5F5F5"/>
<path fill-rule="evenodd" clip-rule="evenodd" d="M13 4.5C13.2449 4.50003 13.4813 4.58996 13.6644 4.75272C13.8474 4.91547 13.9643 5.13975 13.993 5.383L14 5.5C14.0003 5.75488 14.0979 6.00003 14.2728 6.18537C14.4478 6.3707 14.687 6.48223 14.9414 6.49717C15.1958 6.51211 15.4464 6.42933 15.6418 6.26574C15.8373 6.10214 15.9629 5.8701 15.993 5.617L16 5.5C16 5.23478 16.1054 4.98043 16.2929 4.79289C16.4804 4.60536 16.7348 4.5 17 4.5H19C19.7956 4.5 20.5587 4.81607 21.1213 5.37868C21.6839 5.94129 22 6.70435 22 7.5V17.5C22 18.2956 21.6839 19.0587 21.1213 19.6213C20.5587 20.1839 19.7956 20.5 19 20.5H17C16.7551 20.5 16.5187 20.41 16.3356 20.2473C16.1526 20.0845 16.0357 19.8603 16.007 19.617L16 19.5C15.9997 19.2451 15.9021 19 15.7272 18.8146C15.5522 18.6293 15.313 18.5178 15.0586 18.5028C14.8042 18.4879 14.5536 18.5707 14.3582 18.7343C14.1627 18.8979 14.0371 19.1299 14.007 19.383L14 19.5C14 19.7652 13.8946 20.0196 13.7071 20.2071C13.5196 20.3946 13.2652 20.5 13 20.5H5C4.20435 20.5 3.44129 20.1839 2.87868 19.6213C2.31607 19.0587 2 18.2956 2 17.5V7.5C2 6.70435 2.31607 5.94129 2.87868 5.37868C3.44129 4.81607 4.20435 4.5 5 4.5H13ZM15 13.5C14.7348 13.5 14.4804 13.6054 14.2929 13.7929C14.1054 13.9804 14 14.2348 14 14.5V15.5C14 15.7652 14.1054 16.0196 14.2929 16.2071C14.4804 16.3946 14.7348 16.5 15 16.5C15.2652 16.5 15.5196 16.3946 15.7071 16.2071C15.8946 16.0196 16 15.7652 16 15.5V14.5C16 14.2348 15.8946 13.9804 15.7071 13.7929C15.5196 13.6054 15.2652 13.5 15 13.5ZM15 8.5C14.7551 8.50003 14.5187 8.58996 14.3356 8.75272C14.1526 8.91547 14.0357 9.13975 14.007 9.383L14 9.5V10.5C14.0003 10.7549 14.0979 11 14.2728 11.1854C14.4478 11.3707 14.687 11.4822 14.9414 11.4972C15.1958 11.5121 15.4464 11.4293 15.6418 11.2657C15.8373 11.1021 15.9629 10.8701 15.993 10.617L16 10.5V9.5C16 9.23478 15.8946 8.98043 15.7071 8.79289C15.5196 8.60536 15.2652 8.5 15 8.5Z" fill="#F5F5F5"/>
</g>
<defs>
<clipPath id="clip0_2_31">
<rect width="24" height="24" fill="white" transform="translate(0 0.5)"/>
</clipPath>
</defs>
</svg>
