<svg width="24" height="25" viewBox="0 0 24 25" fill="none" xmlns="http://www.w3.org/2000/svg">
<path d="M7.50001 2.75C7.69892 2.75 7.88968 2.82902 8.03034 2.96967C8.17099 3.11032 8.25001 3.30109 8.25001 3.5V3.753C8.59334 3.75033 8.96634 3.74933 9.36901 3.75H14.631C15.0337 3.75 15.4067 3.751 15.75 3.753V3.5C15.75 3.30109 15.829 3.11032 15.9697 2.96967C16.1103 2.82902 16.3011 2.75 16.5 2.75C16.6989 2.75 16.8897 2.82902 17.0303 2.96967C17.171 3.11032 17.25 3.30109 17.25 3.5V3.801C17.262 3.801 17.2737 3.802 17.285 3.804C17.995 3.858 18.594 3.973 19.141 4.236C20.0255 4.65688 20.7545 5.34633 21.224 6.206C21.511 6.738 21.634 7.319 21.693 7.999C21.75 8.661 21.75 9.481 21.75 10.509V15.49C21.75 16.519 21.75 17.34 21.693 18.001C21.633 18.681 21.511 19.262 21.224 19.793C20.7547 20.653 20.0257 21.3429 19.141 21.764C18.594 22.027 17.995 22.142 17.285 22.196C16.589 22.25 15.725 22.25 14.631 22.25H9.37001C8.27601 22.25 7.41201 22.25 6.71601 22.196C6.00601 22.141 5.40701 22.027 4.86001 21.764C3.97551 21.3431 3.24652 20.6537 2.77701 19.794C2.49001 19.262 2.36701 18.681 2.30801 18.001C2.25101 17.339 2.25101 16.519 2.25101 15.491V10.51C2.25101 9.481 2.25101 8.66 2.30801 7.999C2.36801 7.319 2.49001 6.738 2.77701 6.207C3.24635 5.34696 3.97536 4.65714 4.86001 4.236C5.40701 3.973 6.00601 3.858 6.71601 3.804L6.75001 3.8V3.5C6.75001 3.30109 6.82902 3.11032 6.96968 2.96967C7.11033 2.82902 7.3011 2.75 7.50001 2.75ZM6.75001 5.306C6.17301 5.356 5.80401 5.446 5.51001 5.588C4.91042 5.87143 4.41558 6.33687 4.09601 6.918C3.98201 7.13 3.90001 7.384 3.84601 7.75H20.155C20.1 7.384 20.018 7.13 19.904 6.919C19.5849 6.33765 19.0904 5.87186 18.491 5.588C18.196 5.446 17.827 5.356 17.25 5.306V5.5C17.25 5.69891 17.171 5.88968 17.0303 6.03033C16.8897 6.17098 16.6989 6.25 16.5 6.25C16.3011 6.25 16.1103 6.17098 15.9697 6.03033C15.829 5.88968 15.75 5.69891 15.75 5.5V5.253C15.4093 5.25033 15.026 5.24933 14.6 5.25H9.40001C8.97401 5.25 8.59067 5.251 8.25001 5.253V5.5C8.25001 5.69891 8.17099 5.88968 8.03034 6.03033C7.88968 6.17098 7.69892 6.25 7.50001 6.25C7.3011 6.25 7.11033 6.17098 6.96968 6.03033C6.82902 5.88968 6.75001 5.69891 6.75001 5.5V5.306Z" fill="#8AD908"/>
</svg>
